<?xml version="1.0" encoding="utf-8"?>
<!-- Generator: Adobe Illustrator 26.2.0, SVG Export Plug-In . SVG Version: 6.00 Build 0)  -->
<svg version="1.1" id="Layer_2_00000079444652947990608120000008921647630470195854_"
	 xmlns="http://www.w3.org/2000/svg" xmlns:xlink="http://www.w3.org/1999/xlink" x="0px" y="0px" viewBox="0 0 3677.8 2016.4"
	 style="enable-background:new 0 0 3677.8 2016.4;" xml:space="preserve">
<style type="text/css">
	.st0{fill:none;stroke:#000000;stroke-width:10;}
</style>
<path class="st0" d="M238.9,886.2c54.1,178.6,126.6,359.8,264.6,485.3c27,24.6,56.1,46.6,85.3,68.4
	c202.7,151.5,415.2,296.7,655.4,376.3c23,7.6,52.9,12.7,67.7-6.5c11.3-14.8,6.5-36.6-3.8-52.1s-25.2-27.5-35.5-43
	c-21.9-32.9-20.1-75.7-32.1-113.3c-26.6-83.3-113.8-128.6-191.7-168.2c-70-35.6-138.7-73.5-206.1-113.9c-40.1-24-80-49-113.8-81.2
	c-61.4-58.5-99.3-138.1-121.9-219.8c-8.4-30.3-16.3-63.7-41-83.2c-25.2-19.8-60.4-19.5-90.8-29.9c-30.4-10.5-58.8-45.9-40.7-72.4
	c-15-4.4-27.6-14.6-35.1-28.3c27.8-10.7,46.5-41.2,43.6-70.8c-53.8,7.2-108.5-4.3-154.9-32.5c-12.3-7.6-40.9-29.6-56.8-20.8
	c-13.1,7.2-15.3,46-16.3,58.9C211,789,224.6,838.9,238.9,886.2z"/>
<path class="st0" d="M778.4,849.2c0.5-14,0.2-32.9,13.8-36.3c10.4-2.6,19.3,7.1,27.5,14c23.7,20,57.8,20.1,87,30.6
	c40.5,14.7,70.1,49,97.9,82c10.2,12.1,20.7,24.9,23.8,40.4c2.3,11.9,0,24.1-0.6,36.3c-3.4,71.2,52.5,130.7,109.6,173.3
	c95.6,71.3,210,122.7,329.3,124.1c5.6,0.1,11.7-0.2,16.1-3.7c5.3-4.4,6.1-12.2,6.4-19c1.1-23.3,2.1-46.7,3.2-70.1
	c65.7,8.5,131.7,13.7,197.9,15.5c28,0.8,57.8,0.4,81.2-14.9c22.1,34.9,35.8,74.5,40,115.6c1,9.7,1.2,20.2-3.7,28.6
	c-4.5,7.6-12.4,12.2-19.3,17.6c-34.6,27.2-43.7,74.7-61.9,114.8c-8.2,18.2-20.9,37.1-40.5,41.2c-13,2.7-26.3-1.7-39.2-5
	c-30.2-7.7-61.6-9.2-92.4-4.5c-59.4,9.1-121.3,40.9-176.1,16.2c-23.4-10.6-41.3-30.1-59.7-48.1c-64.9-63.6-144.8-113.2-233-135.4
	c-25.2-6.3-51-10.4-76-17.5c-103.9-29.3-186.5-106.7-262.1-183.8c-45.9-46.9-94.1-102.8-89.8-168.3c1.2-19.2,7.5-38.6,20.6-52.7
	c17.3-18.6,41.5-15.6,61.8-27.4C762,900.1,777.5,874.3,778.4,849.2z"/>
<path class="st0" d="M1201.7,827.1c3.3-16.4,2.1-33.4,2.1-50.1c0-2.7,0.1-5.6,1.5-7.9c3.5-5.6,11.8-4.4,18.1-2.7
	c83.6,23.2,171.7,25.2,256.2,5.9c46.8-10.7,91.9-27.9,138.8-38.2s97-13.6,141.9,3.3c3.8,1.4,7.6,3,10.4,5.9
	c5.4,5.5,5.7,14.2,5.4,21.9c-0.7,19.4-3.3,38.7-3.3,58c-0.4,91.5,52,173.7,102.5,250c-51.1,55-124,85.9-197.8,99.3
	c-73.8,13.4-149.6,10.9-224.6,8.3l-8.8,79.1c-0.6,5.4-1.3,11.1-4.2,15.7c-8.7,13.8-29.5,10.2-44.8,4.4
	c-102.6-38.8-196.4-98-275.6-173.9c-24.5-23.5-48.8-51.4-51.2-85.3c-1.7-24.4,8.4-47.9,18.3-70.2c9.6-21.6,20.4-44.7,41-56.3
	C1159.2,876.6,1193.6,867.6,1201.7,827.1z"/>
<path class="st0" d="M1865.8,672c22.5-8.8,47-10.4,70.6-15.8c57-13.1,106-48.1,153.4-82.3c9-6.4,18-13,25-21.5
	c5.5-6.6,9.7-14.3,16.1-20c11-9.8,26.8-12.2,41.6-12.2c25.2-0.1,50.1,5,74.8,10.2l334.4,69.4c23.6,4.9,47.6,10,68.2,22.5
	c35.4,21.7,54.6,61.6,71.8,99.4c4.3,9.4,8.7,19.2,8.1,29.5c-0.5,9.3-5,17.8-9.3,26c-37.5,71.8-66.4,147.8-86.1,226.4
	c-2.7,10.7-5.4,21.9-13.1,29.8c-8.5,8.7-21.3,11.5-33.4,12.7c-51.5,5.3-103.2-9.2-155-7.5c-62.7,2-121.9,27.5-181.7,46.6
	c-95.2,30.3-202.2,43.9-292.7,1.6c-23.6-11-46.2-26.4-59.6-48.8c-7.9-13.3-12.2-28.4-18.8-42.3c-13.2-27.6-35.6-50.1-48.4-77.9
	c-10.2-22-14-46.4-17.6-70.4c-5.7-37.1-18.3-84.8-9.8-122.2C1810.4,698.2,1841.8,681.4,1865.8,672z"/>
<path class="st0" d="M1304.1,1678.9c-5.2-8.9-10.5-18.5-10.1-28.7c0.7-18,19-31,36.9-33.5s35.9,2.4,53.8,4.4
	c77,8.3,154.2-37.8,229.7-20.6c41.9,9.5,86.9,37.5,123.8,15.5c50.8-30.5,33-129.2,90.1-145.1c11-3.1,23.2-2,33.5-6.9
	c17.2-8.1,23.3-29.2,25.7-48.1c6.3-50.5-66.2-175.5-86.2-222.2c27.3-23.5,52.6-53,87.8-60.3c52.3-10.9,119.5,40.4,171.8,29.5
	c16.2-3.4,101.6-11.6,118-9.8c19.8,2.1,36.5,108.3,51.5,121.4c53.2,46.1,54.8,65.2,57.8,135.6c2.1,49.1,4.2,98.2,6.2,147.3
	c2.8,65.5,1.7,140.5-47.7,183.6c-28.9,25.3-68.6,33.5-106.4,40.4c-175.3,31.8-352.6,52.8-530.4,62.9c-50.9,2.9-196,33.3-235.9-4.6
	c-16.9-16.1-11-44-17.4-64.6C1346.2,1741.3,1321.7,1709.4,1304.1,1678.9z"/>
<path class="st0" d="M2277.6,1231.9c13.9,23.8,32.1,45.5,40.7,71.7c7.6,23.4,6.9,48.5,7.1,73.1c0.7,75.1,3.4,150.1,1,225.1
	c-1.1,34.4-10.9,93.1-1.9,104.6c24.4,31.3,115.5-23.6,153.8-33.7c50.9-13.4,104.1-51.6,150-77.3c10.8-6,21.9-12.4,29.2-22.3
	c10.5-14.2,10.2-33.1,11.7-50.7c10.7-122.8,2.4-246.7-28.6-369.6c-2.9-11.4-4.3-23.7-11.2-33.2c-8.4-11.7-22.4-18-36-22.9
	C2507.8,1066.1,2185.9,1074.4,2277.6,1231.9z"/>
<path class="st0" d="M409.8,685.3c1.7-68.3,4.2-139.4,36.5-199.5c32.3-60.1,315.7-200.2,377.2-238.8
	c-17.5-41.2-138.8-16.1-184.4-73.5c-15-18.8-114.3,60.3-135.2,63.3c-39.1,5.5-95.5,26.7-121.8,56.2c-32,35.8-41.9,75.7-54.6,123.5
	c-46.7,19.5-72.7,30.9-112.6,29.8c-8.3,38.9-16.6,79.5-6.9,118.1c10.5,42,43.3,62.9,78.7,82.6C296.8,652.5,409.5,698.6,409.8,685.3z
	"/>
<path class="st0" d="M1530.9,710.4c14.5-3.9,29.4-5.6,44.3-7c47.2-4.4,94.6-5.5,141.9-3.4c7.7,0.3,47.4,5.2,54.5,2.3
	c9.4-3.8,26.9-17.2,34.3-24.1c25.1-23.9,63.8-35.8,98-41.2c51.8-8.3,23.9-30.2,19.5-64.5c-2.9-22.4-22.1-38.8-41.3-50.6
	c-132.4-80.9-310.5-41.5-448-113.4c-26.7-14-45.5-38.2-53.4-40.4c-53.8,26.2-46.4,15.6-79.4,14.7c-33.8-0.9-48.4,3.2-82.3,2.9
	c-40.5-0.4-45-3.9-85.3-8c43.5,74,24.9,205.8,89.9,261.9c19.2,16.6,41.5,39.6,32.6,63.4c-3.5,9.2-11.5,17.8-9.2,27.3
	c2.2,8.8,12.2,12.9,20.9,15.3c45,12.5,89.8,13,135.6,7.7C1449.8,747.9,1486.6,722.3,1530.9,710.4z"/>
<path class="st0" d="M978.3,238.9c39.8,18,73,47.9,103.4,79.3c6.9,7.2,13.8,14.5,22.4,19.5c12,6.9,26.1,8.7,39.8,10.2
	c29,3.2,58,6.2,87,8.8c19.2,1.7,38.6,3.3,57.5,0.1s37.7-11.9,49.3-27.3c-40.8-25.3-67.7-71.8-69.2-119.8c-0.2-6.1-0.1-12.4-2.6-18
	c-2.5-5.5-7.3-9.6-12-13.4c-85.8-68.6-199.6-101.1-308.7-88.1c-14.8,1.8-29.6,4.3-43.6,9.3c-22.8,8.1-43.7,22.7-67.7,25.4
	c-35.6,4-69.4-18.7-105.2-17.9c-33.7,0.7-80,15.2-89.9,42.2c49.9,36,46.2,42.6,107.3,49.4c90,10,87.1,37.9,101.3,36.6
	c13.4-1.2,26.7-9.5,40.6-11.3C918.6,219.9,950.3,226.2,978.3,238.9z"/>
<path class="st0" d="M2806.6,1522.9c71.9-41,135.2-95.3,195.7-151.7c20.8-19.4,42.3-39.7,69.4-48.5c14-4.5,28.7-5.8,43.2-8.4
	c49.8-8.9,95-33.8,139-58.8c30.9-17.5,62.1-35.7,86.3-61.6c21.3-22.8,36.3-50.6,51-78c4.2-7.9,8.6-16.1,9.5-25
	c0.7-6.9-0.6-13.8-1.9-20.6c-6.1-31.6-12.8-64.6-32.9-89.8c-17.1-21.4-42-34.8-64.5-50.3c-18.3-12.7-35.4-27.1-51-43
	c-18.5,37.9-37,75.9-55.5,113.8c-13.1,26.9-26.7,54.4-48.1,75.3c-35.3,34.5-87,46.4-136.3,48.8s-99-3.1-147.9,3.3
	c-8.2,1.1-17,2.8-22.7,8.8c-4.1,4.3-6,10.2-7.8,15.9c-11.9,36.4-27.8,71.5-47.2,104.5c-3.6,6-7.5,12.2-13.6,15.7
	c-21.5,12.2-47.3-18.2-70.9-10.9c-14.5,78.1-0.8,111.1,4.6,190.3c1.8,26-13.6,105.4,19.8,103.7
	C2735.1,1555.7,2806.6,1533.5,2806.6,1522.9z"/>
<path class="st0" d="M2666.2,1122.3c8.8,22.4,23.9,43.3,24.1,67.4c0.1,10.8-2.7,22.5,2.6,31.9c6.7,11.8,22.4,14,35.9,14.9
	c12,0.8,25.4,1.2,34.7-6.5c4-3.3,6.8-7.8,9.5-12.2c18.7-31.8,31.2-67.2,36.5-103.7c0.3-2.3,0.6-4.7,0-7c-0.9-3.2-3.5-5.7-5.8-8
	c-14.9-15.1-24.5-35.4-26.6-56.5c-1.2-12.4,0-24.9-1.9-37.2c-3.3-21.7-17-41.5-36.1-52.4c-13.2-7.5-41.3-22.1-56-14.4
	c-14,7.4-18.4,46.9-22,61.9C2650.9,1042.4,2650,1081.1,2666.2,1122.3z"/>
<path class="st0" d="M2794.6,612.7c32.5-7.5,64.1-27,77.8-57.4c4.5-10.1,7.1-21.2,13.1-30.4c14.2-21.9,44.7-27.8,70.1-22.1
	s47.7,20.6,70.7,33c29.6,15.9,61.2,28.1,93.8,36c31.7,7.7,66.3,11.1,95.9-2.5c13.3,31.1,26.8,63.5,25.7,97.4
	c-1,30.8-14,59.8-20.6,89.8c-6.7,30.1-5.5,65.4,16.7,86.8c-9.7,44.8-39.4,81.7-61.5,121.9c-12.6,23-30.3,53.5-45.1,74.5
	c-12.7,18.1-56.1,51-91.7,54c-67.4,5.7-118.4,19.7-183.8,2.2c-22.4-6-35.2-22.3-39.1-40.3c-6.1-27.3,3.5-61-13.4-83.3
	c-12.8-17-36.4-30.9-55-41.1c-18.7-10.2-50.5-28.5-43.9-48.7c2.3-7.1,6.3-20.2,8.6-27.3c5-15.8,5.7-18.1,11.8-34.3
	c8.5-22.5,20.5-43.1,34.8-65c6.9-10.7-4.9-17.6-9.1-34.2c-5.1-19.7-7.3-24.6-16.9-41.4c-6.9-12-24.3-37.7-34.8-48.2
	c-13.8-13.8-72.2-48.7-45.3-52.8C2679.1,575.3,2768.1,618.8,2794.6,612.7z"/>
<path class="st0" d="M3266.2,701.8c-7.5,25-25.9,67.1-26.6,93.1c-0.7,27,41.3,41.5,26.1,63.8c-12.9,19,18.6,28.4,39.6,41.3
	c8.3,5.1,23.5,15.4,31.4,21.2c11.8,8.5,31.2,16.7,39.2,28.8c21.4,32.4,43.5,66.1,48.9,104.6c20.7-3.1,41.1-7.9,60.9-14.5
	c3.5-1.2,6.1-2.4,9.5-3.7c4.8-1.9,10.3-6.6,13.5-10.2c17.1-19.4,27.6-37.2,36.8-67.2c8.5-27.7-3.9-50.1-3.8-79.5
	c0.1-57.9-45.1-62.2-69.4-107.9c-12.9-24.2-3.6-114.3-30.3-138.9c-20.2-18.6-58.5-48.6-89.7-57c-19-5.1-98.6-28.2-99.3,3.6
	c-0.4,18.2,13.1,41.7,15.9,60.5C3272.2,660.3,3272.3,681.6,3266.2,701.8z"/>
</svg>
