<?xml version="1.0" encoding="utf-8"?>
<!-- Generator: Adobe Illustrator 26.2.0, SVG Export Plug-In . SVG Version: 6.00 Build 0)  -->
<svg version="1.1" id="Layer_2" xmlns="http://www.w3.org/2000/svg" xmlns:xlink="http://www.w3.org/1999/xlink" x="0px" y="0px"
	 viewBox="0 0 2534 1329" style="enable-background:new 0 0 2534 1329;" xml:space="preserve">
<style type="text/css">
	.st0{fill:none;stroke:#000000;stroke-width:10;}
</style>
<path class="st0" d="M26.9,377.5C81,556,153.5,737.3,291.6,862.8c27,24.5,56.1,46.6,85.3,68.4c202.7,151.5,415.2,296.7,655.4,376.3
	c23,7.6,52.9,12.7,67.7-6.5c11.3-14.8,6.5-36.6-3.8-52.1c-10.3-15.5-25.2-27.5-35.5-43c-21.9-32.9-20.1-75.6-32.1-113.3
	C1002,1009.2,914.8,964,836.8,924.3c-70-35.6-138.7-73.6-206.1-113.9c-40.1-24-80-49-113.8-81.2c-61.4-58.6-99.3-138.1-121.8-219.8
	c-8.4-30.3-16.3-63.7-41-83.1c-25.2-19.9-60.4-19.5-90.7-29.9s-58.8-45.9-40.7-72.4c-14.8-4.3-27.8-14.7-35.1-28.3
	c27.8-10.7,46.5-41.2,43.6-70.8c-53.3,7.3-109.1-4.4-154.9-32.5c-12.3-7.6-40.9-29.6-56.8-20.8c-13.1,7.2-15.3,46-16.3,58.9
	C-1,280.2,12.6,330.2,26.9,377.5z"/>
<path class="st0" d="M566.5,340.4c0.5-14,0.2-32.9,13.8-36.3c10.4-2.6,19.3,7.1,27.5,14c23.7,20,57.8,20.1,87,30.6
	c40.5,14.7,70.1,49,97.9,81.9c10.2,12.1,20.7,24.9,23.8,40.4c2.3,11.9,0,24.2-0.6,36.3c-3.4,71.2,52.5,130.7,109.6,173.3
	c95.6,71.3,210,122.7,329.3,124.1c5.6,0.1,11.7-0.1,16.1-3.7c5.3-4.4,6.1-12.1,6.4-19c1.1-23.4,2.1-46.7,3.2-70.1
	c65.7,8.5,131.7,13.7,197.9,15.5c28,0.8,57.8,0.4,81.2-14.9c22.1,34.7,35.9,74.6,40,115.6c1,9.7,1.3,20.2-3.7,28.6
	c-4.5,7.5-12.4,12.2-19.3,17.6c-34.6,27.2-43.7,74.7-61.9,114.8c-8.3,18.2-20.9,37.1-40.5,41.2c-13,2.7-26.3-1.7-39.2-5
	c-30.1-7.7-61.7-9.2-92.4-4.5c-59.4,9.1-121.3,40.9-176.1,16.3c-23.4-10.6-41.3-30.1-59.7-48.1c-64.9-63.6-144.8-113.2-233-135.4
	c-25.2-6.3-51-10.4-76-17.4C693.7,807,611.1,729.6,535.5,652.4c-45.9-46.9-94.1-102.8-89.8-168.3c1.3-19.2,7.5-38.6,20.6-52.7
	c17.3-18.6,41.5-15.6,61.8-27.4C550,391.3,565.5,365.5,566.5,340.4z"/>
<path class="st0" d="M989.7,318.3c3.3-16.4,2.1-33.4,2.1-50.1c0-2.7,0.1-5.6,1.5-7.9c3.4-5.6,11.8-4.4,18.1-2.7
	c83.2,23.1,172.1,25.2,256.2,5.9c46.8-10.7,91.9-27.9,138.8-38.2s97-13.6,141.9,3.3c3.8,1.4,7.6,3,10.4,5.9
	c5.4,5.5,5.7,14.2,5.4,21.9c-0.7,19.4-3.3,38.7-3.4,58.1c-0.4,91.5,52,173.7,102.5,250c-51.1,55-124,85.9-197.8,99.3
	s-149.6,10.9-224.6,8.3c-2.9,26.4-5.9,52.7-8.8,79.1c-0.6,5.4-1.3,11.1-4.2,15.7c-8.7,13.8-29.5,10.2-44.8,4.4
	c-102.3-38.7-196.7-98.2-275.6-173.9c-24.5-23.5-48.8-51.4-51.2-85.3c-1.7-24.4,8.4-47.9,18.3-70.2c9.6-21.6,20.4-44.7,41-56.3
	C947.2,367.8,981.7,358.8,989.7,318.3z"/>
<path class="st0" d="M1653.8,163.2c22.5-8.8,47-10.4,70.6-15.8c57-13.1,106-48.1,153.4-82.3c8.9-6.5,18-13,25-21.5
	c5.5-6.6,9.7-14.3,16.1-20c11-9.8,26.8-12.2,41.6-12.2c25.2-0.1,50.1,5,74.8,10.2c111.5,23.1,222.9,46.3,334.4,69.4
	c23.5,4.9,47.6,10,68.2,22.5c35.4,21.7,54.6,61.6,71.8,99.4c4.3,9.4,8.7,19.2,8.1,29.5c-0.5,9.3-5,17.8-9.3,26
	c-37.5,71.7-66.4,147.9-86.1,226.4c-2.7,10.7-5.5,21.9-13.1,29.8c-8.5,8.7-21.3,11.5-33.4,12.7c-51.5,5.3-103.2-9.2-155-7.5
	c-62.7,2-121.9,27.5-181.7,46.6c-95.2,30.3-202.2,43.9-292.7,1.6c-23.6-11-46.2-26.4-59.5-48.8c-7.9-13.3-12.2-28.4-18.8-42.3
	c-13.2-27.6-35.6-50.1-48.4-77.9c-10.2-22-14-46.4-17.6-70.4c-5.6-37.1-18.3-84.8-9.7-122.2C1598.5,189.4,1629.8,172.6,1653.8,163.2
	z"/>
</svg>
